<!DOCTYPE svg PUBLIC "-//W3C//DTD SVG 1.1//EN" "http://www.w3.org/Graphics/SVG/1.1/DTD/svg11.dtd">
<!-- Uploaded to: SVG Repo, www.svgrepo.com, Transformed by: SVG Repo Mixer Tools -->
<svg width="800px" height="800px" viewBox="0 0 1024 1024" class="icon" version="1.1" xmlns="http://www.w3.org/2000/svg" fill="#000000">
<g id="SVGRepo_bgCarrier" stroke-width="0"/>
<g id="SVGRepo_tracerCarrier" stroke-linecap="round" stroke-linejoin="round"/>
<g id="SVGRepo_iconCarrier">
<path d="M906 557c-1.1 11-11.2 16.5-19.8 21.5-8 4.6-16 9.3-23.9 13.9-12.8 7.4-25.5 14.8-38.3 22.2-16 9.3-31.9 18.6-47.9 27.8-17.6 10.2-35.2 20.5-52.9 30.7-17.7 10.3-35.4 20.6-53.2 30.9-16.3 9.5-32.5 18.9-48.8 28.4-13.3 7.7-26.5 15.4-39.8 23.1-8.7 5-17.4 10.1-26.1 15.1-6.6 3.8-12.8 7.6-20.3 9.8-19.5 5.6-41.1 3.7-58.7-6.5-6.3-3.7-12.7-7.3-19-11-11.6-6.7-23.1-13.3-34.7-20-15.2-8.8-30.4-17.6-45.6-26.3-17.3-10-34.7-20-52-30-17.9-10.3-35.8-20.7-53.7-31-16.9-9.8-33.8-19.5-50.8-29.3l-43.2-24.9c-10.3-6-20.7-11.9-31-17.9-4.7-2.7-9.4-5.4-14.1-8.2-7.4-4.3-14.7-11.1-14.7-20.3 0 8.4 0 16.8-0.1 25.3 0 3-0.2 6.1 0 9.2 0.6 8.1 7 14.4 13.7 18.4 4.1 2.5 8.3 4.8 12.5 7.2 10.8 6.2 21.6 12.5 32.4 18.7 15.6 9 31.1 18 46.7 27 18.5 10.7 37.1 21.4 55.6 32.1 19.3 11.2 38.6 22.3 58 33.5 18.4 10.6 36.7 21.2 55.1 31.8 15.3 8.8 30.5 17.6 45.8 26.4 10.3 6 20.7 11.9 31 17.9 6 3.4 11.9 7.3 18.4 9.7 20.3 7.4 44.1 5.8 62.8-5.1 7.1-4.1 14.2-8.3 21.3-12.4 13.1-7.6 26.2-15.2 39.2-22.8 17.1-9.9 34.1-19.8 51.2-29.8 19.1-11.1 38.2-22.2 57.2-33.3l57.3-33.3c17.1-10 34.2-19.9 51.4-29.9 13.3-7.7 26.6-15.4 39.9-23.2 7.3-4.3 14.7-8.5 22-12.8 2.2-1.3 4.5-2.6 6.6-4.1 5.6-4.2 10-10 10.1-17.3 0.1-3.7 0-7.3 0-11 0-7.3 0-14.7 0.1-22 0.4 0.7 0.4 1.3 0.3 1.8 0 0.2 0.1-0.2 0 0zM906.1 555.4z" fill="#7A9EFD"/>
<path d="M891.8 535.5c19 11 19.1 28.9 0.2 39.9L547.6 775.5c-18.9 11-49.8 11-68.8 0L132.1 575.3c-19-11-19.1-28.9-0.2-39.9l344.4-200.2c18.9-11 49.8-11 68.8 0l346.7 200.3z" fill="#E4ECF9"/>
<path d="M588.2 297c0.2 0 0.3-0.1 0.4-0.1h0.4c0.1 0 0.3 0.1 0.4 0.1l-16-9.3s-0.1 0-0.1-0.1c0 0-0.1 0-0.1-0.1h-0.5-0.1-0.1c-0.1 0-0.2 0-0.2 0.1h-0.1-0.1-0.1c-0.1 0.1-0.3 0.1-0.4 0.2L293.1 448.7l16 9.3 278.5-160.8c0.2-0.1 0.4-0.1 0.6-0.2zM306.8 622l-0.5-159.3-16-9.3 0.5 159.3c0 4.8 1.7 8.1 4.4 9.7l16 9.3c-2.7-1.6-4.4-4.9-4.4-9.7zM306.6 461.4c0.1-0.5 0.3-0.9 0.6-1.3 0.2-0.4 0.5-0.8 0.8-1.1 0.3-0.3 0.7-0.6 1-0.8l-16-9.3c-0.3 0.2-0.6 0.4-0.9 0.7l-0.1 0.1-0.1 0.1c-0.1 0.1-0.2 0.2-0.2 0.3-0.1 0.1-0.1 0.2-0.2 0.2-0.1 0.1-0.1 0.2-0.2 0.2 0 0.1-0.1 0.2-0.1 0.2 0 0.1-0.1 0.1-0.1 0.2s-0.1 0.2-0.1 0.2c0 0.1-0.1 0.2-0.1 0.2 0 0.1-0.1 0.2-0.1 0.2 0 0.1-0.1 0.2-0.1 0.3v0.2c0 0.1-0.1 0.2-0.1 0.3 0 0.1 0 0.3-0.1 0.4v0.5l16 9.3c-0.1-0.2-0.1-0.6 0.1-1.1z" fill="#2A2ABC"/>
<path d="M587.6 297.2c1.5-0.9 2.7-0.2 2.7 1.6l0.5 159.3c0 9.6-6.8 21.3-15.1 26.2L322 630.7c-8.3 4.8-15.2 0.9-15.2-8.7l-0.5-159.3c0-1.7 1.2-3.8 2.7-4.7l278.6-160.8z" fill="#4040FF"/>
<path d="M577.5 220c0.4-0.1 0.7-0.3 1.1-0.4 0.2-0.1 0.5-0.1 0.7-0.2 0.2-0.1 0.4-0.1 0.6-0.1 0.3-0.1 0.5-0.1 0.8-0.1h1.7c0.4 0 0.8 0.1 1.1 0.1 0.1 0 0.2 0 0.3 0.1 0.3 0.1 0.6 0.1 0.8 0.2 0.1 0 0.2 0.1 0.3 0.1 0.3 0.1 0.7 0.3 1 0.5l-16-9.3h-0.1c-0.2-0.1-0.5-0.3-0.8-0.4 0 0-0.1 0-0.1-0.1-0.1 0-0.2-0.1-0.3-0.1-0.1 0-0.3-0.1-0.4-0.1-0.1 0-0.3-0.1-0.4-0.1-0.1 0-0.2 0-0.3-0.1h-0.2c-0.3-0.1-0.6-0.1-0.9-0.1h-2.2c-0.1 0-0.2 0.1-0.4 0.1s-0.4 0.1-0.6 0.1c-0.1 0-0.2 0-0.3 0.1-0.1 0-0.2 0.1-0.3 0.1-0.4 0.1-0.7 0.2-1.1 0.4-0.1 0-0.3 0.1-0.4 0.1-0.1 0-0.1 0.1-0.2 0.1-0.6 0.3-1.2 0.6-1.9 0.9l-38.7 22.3 16 9.3 38.7-22.3c0.6-0.4 1.3-0.7 1.9-0.9 0.2-0.1 0.4-0.2 0.6-0.2z" fill="#2A2ABC"/>
<path d="M515.6 207s-0.1 0 0 0c-0.3-0.2-0.6-0.3-0.9-0.4 0 0-0.1 0-0.2-0.1-0.1 0-0.2-0.1-0.3-0.1-0.1 0-0.3-0.1-0.4-0.1-0.1 0-0.3-0.1-0.4-0.1-0.1 0-0.2 0-0.3-0.1h-0.2c-0.3-0.1-0.6-0.1-1-0.1h-2.2c-0.1 0-0.3 0.1-0.4 0.1-0.2 0-0.4 0.1-0.6 0.1-0.1 0-0.2 0-0.4 0.1-0.1 0-0.2 0.1-0.3 0.1-0.4 0.1-0.7 0.2-1.1 0.4-0.1 0.1-0.3 0.1-0.4 0.1-0.1 0-0.1 0.1-0.2 0.1-0.6 0.3-1.3 0.6-2 1l-1.5 0.9c-0.2 0.1-0.3 0.2-0.5 0.3-0.3 0.2-0.7 0.5-1 0.7-0.2 0.1-0.4 0.3-0.5 0.4-0.3 0.3-0.6 0.5-0.9 0.8-0.2 0.2-0.4 0.3-0.5 0.5l-0.3 0.3c-0.1 0.1-0.2 0.2-0.3 0.4l-1.1 1.1-0.3 0.3-0.3 0.3c-0.2 0.2-0.4 0.5-0.6 0.8-0.1 0.2-0.3 0.3-0.4 0.5-0.1 0.1-0.2 0.3-0.3 0.4-0.2 0.2-0.3 0.4-0.4 0.6-0.1 0.1-0.2 0.3-0.3 0.4-0.2 0.2-0.3 0.5-0.5 0.7-0.1 0.2-0.2 0.3-0.3 0.5 0 0.1-0.1 0.1-0.1 0.2-0.3 0.4-0.6 0.9-0.8 1.3v0.1c-0.1 0.1-0.1 0.2-0.2 0.3-0.2 0.3-0.4 0.6-0.5 1-0.1 0.1-0.2 0.3-0.2 0.4-0.1 0.2-0.2 0.3-0.2 0.5-0.1 0.1-0.1 0.3-0.2 0.4-0.2 0.4-0.3 0.7-0.5 1.1 0 0.1-0.1 0.2-0.1 0.2v0.1c-0.2 0.5-0.4 0.9-0.6 1.4 0 0.1-0.1 0.2-0.1 0.2-0.1 0.2-0.1 0.3-0.2 0.5s-0.2 0.5-0.3 0.7c-0.1 0.2-0.1 0.4-0.2 0.5-0.1 0.2-0.1 0.4-0.2 0.7 0 0.1-0.1 0.3-0.1 0.4-0.1 0.2-0.1 0.5-0.2 0.7-0.1 0.3-0.1 0.5-0.2 0.8 0 0.1-0.1 0.2-0.1 0.3 0 0.2-0.1 0.4-0.1 0.6-0.1 0.4-0.2 0.8-0.2 1.2 0 0.1 0 0.2-0.1 0.4v0.3c-0.1 0.9-0.2 1.8-0.2 2.7v17l16 9.3v-17c0-0.9 0.1-1.8 0.2-2.7 0-0.2 0-0.5 0.1-0.7 0.1-0.4 0.1-0.8 0.2-1.2 0.1-0.3 0.1-0.6 0.2-0.9 0.1-0.3 0.1-0.5 0.2-0.8 0.1-0.4 0.2-0.7 0.3-1.1 0.1-0.2 0.1-0.4 0.2-0.7 0.1-0.4 0.3-0.8 0.4-1.3 0.1-0.2 0.1-0.3 0.2-0.5 0.2-0.6 0.5-1.2 0.7-1.7 0-0.1 0.1-0.2 0.1-0.2 0.2-0.5 0.5-1 0.7-1.5 0.1-0.2 0.2-0.3 0.2-0.5 0.2-0.5 0.5-0.9 0.8-1.4 0.1-0.1 0.1-0.2 0.2-0.3 0.3-0.5 0.7-1.1 1-1.6 0.1-0.2 0.2-0.3 0.3-0.4 0.3-0.4 0.5-0.8 0.8-1.1 0.1-0.2 0.3-0.4 0.4-0.6 0.2-0.3 0.5-0.6 0.7-0.9 0.2-0.3 0.4-0.5 0.6-0.8 0.2-0.2 0.4-0.5 0.6-0.7 0.3-0.4 0.7-0.8 1-1.1l0.7-0.7c0.2-0.2 0.4-0.3 0.5-0.5 0.3-0.3 0.6-0.5 0.9-0.8 0.2-0.1 0.4-0.3 0.5-0.4 0.3-0.3 0.7-0.5 1-0.7 0.2-0.1 0.3-0.2 0.5-0.3 0.5-0.3 1-0.7 1.5-1 0.7-0.4 1.3-0.7 2-1 0.2-0.1 0.4-0.2 0.6-0.2 0.4-0.1 0.7-0.3 1.1-0.4 0.2-0.1 0.5-0.1 0.7-0.2 0.2-0.1 0.4-0.1 0.6-0.1 0.3-0.1 0.6-0.1 0.8-0.1h1.7c0.4 0 0.8 0.1 1.2 0.1 0.1 0 0.2 0 0.3 0.1l0.9 0.3c0.1 0 0.2 0.1 0.3 0.1 0.4 0.1 0.7 0.3 1 0.5l-16-9.2zM391.5 327l-16-9.3 113.2-65.3 16 9.3z" fill="#2A2ABC"/>
<path d="M360.2 324.8c0.1-0.4 0.1-0.8 0.2-1.2 0.1-0.3 0.1-0.6 0.2-0.9 0.1-0.3 0.1-0.5 0.2-0.8 0.1-0.4 0.2-0.7 0.3-1.1 0.1-0.2 0.1-0.4 0.2-0.7 0.1-0.4 0.3-0.8 0.4-1.3 0.1-0.2 0.1-0.3 0.2-0.5 0.2-0.6 0.5-1.2 0.7-1.7 0-0.1 0.1-0.1 0.1-0.2 0.2-0.5 0.5-1 0.7-1.5 0.1-0.2 0.2-0.3 0.2-0.5 0.2-0.5 0.5-0.9 0.8-1.4 0.1-0.1 0.1-0.2 0.2-0.3 0.3-0.5 0.7-1.1 1-1.6 0.1-0.2 0.2-0.3 0.3-0.4 0.3-0.4 0.5-0.8 0.8-1.1 0.1-0.2 0.3-0.4 0.4-0.6 0.2-0.3 0.5-0.6 0.7-0.9 0.2-0.3 0.4-0.5 0.6-0.8 0.2-0.2 0.4-0.5 0.6-0.7 0.3-0.4 0.7-0.8 1-1.1l0.7-0.7c0.2-0.2 0.4-0.3 0.5-0.5 0.3-0.3 0.6-0.5 0.9-0.8 0.2-0.1 0.4-0.3 0.5-0.4 0.3-0.3 0.7-0.5 1-0.7 0.2-0.1 0.3-0.2 0.5-0.3 0.5-0.3 1-0.7 1.5-1 0.7-0.4 1.3-0.7 2-1 0.2-0.1 0.4-0.2 0.6-0.2 0.4-0.1 0.7-0.3 1.1-0.4 0.2-0.1 0.5-0.1 0.7-0.2 0.2-0.1 0.4-0.1 0.6-0.1 0.3-0.1 0.6-0.1 0.8-0.1h1.7c0.4 0 0.8 0.1 1.2 0.1 0.1 0 0.2 0 0.3 0.1l0.9 0.3c0.1 0 0.2 0.1 0.3 0.1 0.4 0.1 0.7 0.3 1 0.5l-16-9.3h-0.1c-0.3-0.1-0.5-0.3-0.8-0.4 0 0-0.1 0-0.2-0.1-0.1 0-0.2-0.1-0.3-0.1-0.1 0-0.3-0.1-0.4-0.1-0.1 0-0.3-0.1-0.4-0.1-0.1 0-0.2 0-0.3-0.1h-0.2c-0.3-0.1-0.6-0.1-1-0.1h-2.3c-0.1 0-0.3 0.1-0.4 0.1-0.2 0-0.4 0.1-0.6 0.1-0.1 0-0.2 0-0.4 0.1-0.1 0-0.2 0.1-0.3 0.1-0.4 0.1-0.7 0.2-1.1 0.4-0.1 0.1-0.3 0.1-0.4 0.1-0.1 0-0.1 0.1-0.2 0.1-0.6 0.3-1.3 0.6-2 1-0.5 0.3-1 0.6-1.5 1-0.2 0.1-0.3 0.2-0.5 0.3-0.3 0.2-0.7 0.5-1 0.7-0.2 0.1-0.4 0.3-0.5 0.4-0.3 0.3-0.6 0.5-0.9 0.8-0.2 0.2-0.4 0.3-0.5 0.5l-0.3 0.3c-0.1 0.1-0.2 0.2-0.3 0.4-0.4 0.4-0.7 0.7-1 1.1-0.1 0.1-0.2 0.2-0.3 0.4l-0.3 0.3c-0.2 0.2-0.4 0.5-0.6 0.8-0.1 0.2-0.3 0.3-0.4 0.5-0.1 0.1-0.2 0.3-0.3 0.4-0.2 0.2-0.3 0.4-0.4 0.6-0.1 0.1-0.2 0.3-0.3 0.4-0.2 0.2-0.3 0.5-0.5 0.7-0.1 0.2-0.2 0.3-0.3 0.5 0 0.1-0.1 0.1-0.1 0.2-0.3 0.4-0.6 0.9-0.8 1.3 0 0 0 0.1-0.1 0.1-0.1 0.1-0.1 0.2-0.2 0.3-0.2 0.3-0.4 0.6-0.5 1-0.1 0.1-0.1 0.3-0.2 0.4-0.1 0.2-0.2 0.3-0.2 0.5-0.1 0.1-0.1 0.3-0.2 0.4-0.2 0.4-0.3 0.7-0.5 1.1 0 0.1-0.1 0.2-0.1 0.2v0.1c-0.2 0.5-0.4 0.9-0.6 1.4 0 0.1-0.1 0.2-0.1 0.2-0.1 0.2-0.1 0.3-0.2 0.5s-0.2 0.5-0.3 0.7c-0.1 0.2-0.1 0.4-0.2 0.5-0.1 0.2-0.1 0.4-0.2 0.7 0 0.1-0.1 0.3-0.1 0.4-0.1 0.2-0.1 0.5-0.2 0.7-0.1 0.3-0.1 0.5-0.2 0.8 0 0.1-0.1 0.2-0.1 0.3 0 0.2-0.1 0.4-0.1 0.6-0.1 0.4-0.2 0.8-0.2 1.2 0 0.1 0 0.2-0.1 0.4v0.3c-0.1 0.9-0.2 1.8-0.2 2.7v17l16 9.3v-17c0-0.9 0.1-1.8 0.2-2.7 0.1-0.3 0.2-0.5 0.2-0.8z" fill="#2A2ABC"/>
<path d="M520.4 217.4c8.7-5 15.8-0.9 15.8 9v17l38.7-22.3c8.3-4.8 15.2-0.9 15.2 8.6l0.1 50.7-284 164-0.1-50.7c0-9.6 6.8-21.3 15.1-26.1l38.7-22.3v-17c0-10 7.1-22.2 15.7-27.2 8.7-5 15.8-1 15.8 9v17l113.2-65.4v-17c0.1-10 7.1-22.3 15.8-27.3z" fill="#4040FF"/>
<path d="M344 336l-38.7 22.3c-0.8 0.5-1.6 1-2.3 1.6-0.1 0.1-0.3 0.2-0.4 0.3-0.7 0.6-1.4 1.2-2.1 1.9l-0.2 0.2-0.3 0.3c-0.3 0.3-0.7 0.7-1 1.1l-0.3 0.3-0.3 0.3c-0.2 0.2-0.4 0.5-0.6 0.7-0.1 0.2-0.3 0.3-0.4 0.5-0.1 0.1-0.2 0.3-0.3 0.4-0.1 0.2-0.3 0.4-0.4 0.6-0.1 0.1-0.2 0.3-0.3 0.4-0.2 0.2-0.3 0.5-0.5 0.7-0.1 0.1-0.2 0.3-0.3 0.4 0 0.1-0.1 0.1-0.1 0.2-0.3 0.4-0.5 0.9-0.8 1.3v0.1c0 0.1-0.1 0.2-0.1 0.3-0.2 0.3-0.4 0.6-0.5 1-0.1 0.1-0.1 0.3-0.2 0.4-0.1 0.2-0.2 0.3-0.2 0.5-0.1 0.1-0.1 0.3-0.2 0.4-0.2 0.3-0.3 0.7-0.5 1 0 0.1-0.1 0.2-0.1 0.2v0.1c-0.2 0.5-0.4 0.9-0.6 1.4 0 0.1-0.1 0.2-0.1 0.2-0.1 0.2-0.1 0.3-0.2 0.5s-0.2 0.5-0.3 0.7c-0.1 0.2-0.1 0.3-0.2 0.5s-0.1 0.4-0.2 0.6c0 0.1-0.1 0.3-0.1 0.4-0.1 0.2-0.1 0.4-0.2 0.7-0.1 0.3-0.1 0.5-0.2 0.8 0 0.1-0.1 0.2-0.1 0.3 0 0.2-0.1 0.4-0.1 0.6-0.1 0.4-0.1 0.8-0.2 1.2 0 0.1 0 0.2-0.1 0.3v0.3c-0.1 0.9-0.2 1.8-0.2 2.6l4.5 2.6-4.5-2.6 0.1 50.7 16 9.3-0.1-50.7c0-0.9 0.1-1.7 0.2-2.6 0-0.2 0-0.4 0.1-0.7 0.1-0.4 0.1-0.8 0.2-1.2 0.1-0.3 0.1-0.6 0.2-0.8 0.1-0.3 0.1-0.5 0.2-0.8 0.1-0.4 0.2-0.7 0.3-1.1 0.1-0.2 0.1-0.4 0.2-0.6 0.1-0.4 0.3-0.8 0.4-1.2 0.1-0.2 0.1-0.3 0.2-0.5 0.2-0.6 0.4-1.1 0.7-1.7 0-0.1 0.1-0.2 0.1-0.2 0.2-0.5 0.4-1 0.7-1.4 0.1-0.2 0.2-0.3 0.2-0.5 0.2-0.5 0.5-0.9 0.7-1.4 0-0.1 0.1-0.2 0.1-0.3 0.3-0.5 0.6-1 1-1.6 0.1-0.1 0.2-0.3 0.3-0.4 0.2-0.4 0.5-0.7 0.8-1.1 0.1-0.2 0.3-0.4 0.4-0.6 0.2-0.3 0.5-0.6 0.7-0.9 0.2-0.2 0.4-0.5 0.6-0.7 0.2-0.2 0.4-0.4 0.6-0.7 0.3-0.4 0.7-0.7 1-1.1l0.5-0.5c0.7-0.7 1.4-1.3 2.1-1.9 0.1-0.1 0.3-0.2 0.4-0.3 0.8-0.6 1.5-1.1 2.3-1.6l38.7-22.3-16-9.2z" fill="#2A2ABC"/>
<path d="M385.1 509.9c4.7-2.7 8.6-0.5 8.6 4.9v16.7c0 5.4-3.8 12.1-8.6 14.8L352.6 565c-4.7 2.7-8.6 0.5-8.6-4.9v-16.7c0-5.4 3.8-12.1 8.6-14.8l32.5-18.7zM384.9 448.4c4.7-2.7 8.6-0.5 8.6 4.9V470c0 5.4-3.8 12.1-8.6 14.8l-32.5 18.7c-4.7 2.7-8.6 0.5-8.6-4.9v-16.7c0-5.4 3.8-12.1 8.6-14.8l32.5-18.7zM459.8 466.8c4.7-2.7 8.6-0.5 8.6 4.9v16.7c0 5.4-3.8 12.1-8.6 14.8L427.4 522c-4.7 2.7-8.6 0.5-8.6-4.9v-16.7c0-5.4 3.8-12.1 8.5-14.8l32.5-18.8zM459.6 405.3c4.7-2.7 8.6-0.5 8.6 4.9v16.7c0 5.4-3.8 12.1-8.6 14.8l-32.5 18.7c-4.7 2.7-8.6 0.5-8.6-4.9v-16.7c0-5.4 3.8-12.1 8.5-14.8l32.6-18.7zM534.4 423.7c4.7-2.7 8.6-0.5 8.6 4.9v16.7c0 5.4-3.8 12.1-8.6 14.8l-32.5 18.7c-4.7 2.7-8.6 0.5-8.6-4.9v-16.7c0-5.4 3.8-12.1 8.6-14.8l32.5-18.7zM534.3 362.2c4.7-2.7 8.6-0.5 8.6 4.9v16.7c0 5.4-3.8 12.1-8.6 14.8l-32.5 18.7c-4.7 2.7-8.6 0.5-8.6-4.9v-16.7c0-5.4 3.8-12.1 8.6-14.8l32.5-18.7z" fill="#2828CE"/>
<path d="M395.5 517.1s0-0.1 0 0c-0.2-0.1-0.3-0.2-0.5-0.2-0.1-0.1-0.3-0.1-0.5-0.2-0.1 0-0.2 0-0.3-0.1h-0.1-0.1c-0.2 0-0.3 0-0.5-0.1h-0.8-0.4c-0.2 0-0.5 0.1-0.8 0.2-0.1 0-0.2 0.1-0.3 0.1-0.1 0-0.2 0.1-0.3 0.1-0.1 0-0.3 0.1-0.4 0.1l-1.2 0.6-32.5 18.7c-0.5 0.3-1.1 0.7-1.6 1.1-0.2 0.1-0.3 0.3-0.5 0.4-0.2 0.2-0.5 0.4-0.7 0.7-0.1 0.1-0.2 0.2-0.3 0.4l-0.3 0.3-0.3 0.3c-0.2 0.3-0.5 0.6-0.7 0.9-0.1 0.1-0.2 0.2-0.2 0.3 0 0.1-0.1 0.1-0.1 0.2-0.1 0.1-0.1 0.2-0.2 0.3-0.2 0.2-0.3 0.5-0.5 0.7-0.2 0.2-0.3 0.5-0.4 0.7v0.2l-0.3 0.6c-0.1 0.2-0.3 0.5-0.4 0.7l-0.3 0.6v0.1c-0.1 0.3-0.2 0.5-0.3 0.8-0.1 0.3-0.2 0.5-0.3 0.8 0 0.1-0.1 0.3-0.1 0.4 0 0.1 0 0.1-0.1 0.2 0 0.1-0.1 0.2-0.1 0.3-0.1 0.3-0.2 0.7-0.2 1 0 0.2-0.1 0.4-0.1 0.6 0 0.1 0 0.2-0.1 0.3 0 0.1 0 0.2-0.1 0.3-0.1 0.6-0.1 1.1-0.1 1.7v16.7c0 2.7 1 4.6 2.5 5.5l11.7 6.8c-1.5-0.9-2.5-2.8-2.5-5.5V558c0-0.6 0.1-1.3 0.2-2 0-0.1 0-0.2 0.1-0.3 0.1-0.6 0.2-1.2 0.4-1.9 0-0.1 0-0.1 0.1-0.2 0.2-0.7 0.5-1.4 0.7-2v-0.1c0.3-0.7 0.6-1.3 1-2v-0.1l1.2-1.8c0-0.1 0.1-0.1 0.1-0.2 0.4-0.5 0.8-1 1.3-1.5l0.3-0.3c0.3-0.4 0.7-0.7 1.1-1 0.2-0.1 0.3-0.3 0.5-0.4 0.5-0.4 1.1-0.8 1.6-1.1l32.5-18.7c0.5-0.3 1.1-0.5 1.6-0.7 0.1 0 0.2-0.1 0.3-0.1 0.5-0.2 1-0.3 1.4-0.3h0.1c0.5 0 0.9 0 1.4 0.1h0.1c0.4 0.1 0.9 0.2 1.2 0.5l-11.9-6.8z" fill="#ACC5EA"/>
<path d="M401.1 524.4c4.7-2.7 8.6-0.5 8.6 4.9V546c0 5.4-3.8 12.1-8.6 14.8l-32.5 18.7c-4.7 2.7-8.6 0.5-8.6-4.9v-16.7c0-5.4 3.8-12.1 8.6-14.8l32.5-18.7z" fill="#FFFFFF"/>
<path d="M350.8 511.9l11.7 6.8c-1.5-0.9-2.5-2.8-2.5-5.5v-16.7l-11.7-6.8v16.7c0 2.7 0.9 4.6 2.5 5.5z" fill="#ACC5EA"/>
<path d="M395.3 455.6c0-0.1 0-0.1 0 0-0.2-0.1-0.3-0.2-0.5-0.2-0.1-0.1-0.3-0.1-0.5-0.2-0.1 0-0.2 0-0.3-0.1h-0.1-0.1c-0.2 0-0.3 0-0.5-0.1h-0.8-0.4c-0.2 0-0.5 0.1-0.8 0.2-0.1 0-0.2 0.1-0.3 0.1-0.1 0-0.2 0.1-0.3 0.1-0.1 0-0.3 0.1-0.4 0.1l-1.2 0.6-32.5 18.7c-0.5 0.3-1.1 0.7-1.6 1.1-0.2 0.1-0.3 0.3-0.5 0.4-0.3 0.2-0.5 0.4-0.7 0.7-0.1 0.1-0.2 0.2-0.3 0.4l-0.3 0.3-0.3 0.3c-0.2 0.3-0.5 0.6-0.7 0.9-0.1 0.1-0.2 0.2-0.2 0.3 0 0.1-0.1 0.1-0.1 0.2-0.1 0.1-0.1 0.2-0.2 0.3-0.2 0.2-0.3 0.5-0.5 0.7-0.2 0.2-0.3 0.5-0.4 0.7v0.2l-0.3 0.6c-0.1 0.2-0.3 0.5-0.4 0.7-0.1 0.2-0.2 0.4-0.3 0.7v0.1c-0.1 0.3-0.2 0.5-0.3 0.8-0.1 0.3-0.2 0.5-0.3 0.8 0 0.1-0.1 0.3-0.1 0.4 0 0.1 0 0.1-0.1 0.2 0 0.1-0.1 0.2-0.1 0.3-0.1 0.3-0.2 0.7-0.2 1 0 0.2-0.1 0.4-0.1 0.6 0 0.1 0 0.2-0.1 0.3 0 0.1 0 0.2-0.1 0.3-0.1 0.6-0.1 1.1-0.1 1.7l11.7 6.8c0-0.6 0.1-1.3 0.2-2 0-0.1 0-0.2 0.1-0.3 0.1-0.6 0.2-1.2 0.4-1.9 0-0.1 0-0.1 0.1-0.2 0.2-0.7 0.5-1.4 0.7-2 0.3-0.7 0.6-1.4 1-2v-0.1l1.2-1.8c0-0.1 0.1-0.1 0.1-0.2 0.4-0.5 0.8-1 1.3-1.5l0.3-0.3c0.3-0.4 0.7-0.7 1.1-1 0.2-0.1 0.3-0.3 0.5-0.4 0.5-0.4 1.1-0.8 1.6-1.1l32.5-18.7c0.5-0.3 1.1-0.5 1.6-0.7 0.1 0 0.2-0.1 0.3-0.1 0.5-0.2 1-0.3 1.4-0.3h0.1c0.5 0 0.9 0 1.4 0.1h0.1c0.4 0.1 0.9 0.2 1.2 0.5l-11.9-7z" fill="#ACC5EA"/>
<path d="M400.9 462.9c4.7-2.7 8.6-0.5 8.6 4.9v16.7c0 5.4-3.8 12.1-8.6 14.8L368.4 518c-4.7 2.7-8.6 0.5-8.6-4.9v-16.7c0-5.4 3.8-12.1 8.6-14.8l32.5-18.7z" fill="#FFFFFF"/>
<path d="M434.8 531.6l-11.7-6.8c0 2.7 1 4.6 2.5 5.5l11.7 6.8c-1.6-0.9-2.5-2.8-2.5-5.5zM470.2 474c-0.1-0.1-0.1-0.1 0 0-0.2-0.1-0.3-0.2-0.5-0.2-0.1-0.1-0.3-0.1-0.5-0.2-0.1 0-0.2 0-0.3-0.1h-0.1-0.1c-0.2 0-0.3 0-0.5-0.1h-0.8-0.4c-0.2 0-0.5 0.1-0.8 0.2-0.1 0-0.2 0.1-0.3 0.1-0.1 0-0.2 0.1-0.3 0.1-0.1 0-0.3 0.1-0.4 0.1l-1.2 0.6-32.5 18.7c-0.5 0.3-1.1 0.7-1.6 1.1-0.2 0.1-0.3 0.3-0.5 0.4-0.2 0.2-0.5 0.4-0.7 0.7-0.1 0.1-0.2 0.2-0.3 0.4l-0.3 0.3-0.3 0.3c-0.2 0.3-0.5 0.6-0.7 0.8-0.1 0.1-0.2 0.2-0.2 0.3 0 0.1-0.1 0.1-0.1 0.2-0.1 0.1-0.1 0.2-0.2 0.3-0.2 0.2-0.3 0.5-0.5 0.7-0.2 0.2-0.3 0.5-0.4 0.7v0.2l-0.3 0.6c-0.1 0.2-0.3 0.5-0.4 0.7-0.1 0.2-0.2 0.4-0.3 0.7-0.1 0.3-0.2 0.5-0.3 0.8-0.1 0.3-0.2 0.5-0.3 0.8 0 0.1-0.1 0.3-0.1 0.4 0 0.1 0 0.1-0.1 0.2 0 0.1-0.1 0.2-0.1 0.3-0.1 0.3-0.2 0.7-0.2 1 0 0.2-0.1 0.4-0.1 0.6 0 0.1 0 0.2-0.1 0.3 0 0.1 0 0.2-0.1 0.3-0.1 0.6-0.1 1.1-0.1 1.7v16.7l11.7 6.8v-16.7c0-0.6 0.1-1.3 0.2-2 0-0.1 0-0.2 0.1-0.3 0.1-0.6 0.2-1.2 0.4-1.9 0-0.1 0-0.1 0.1-0.2 0.2-0.7 0.5-1.4 0.7-2 0.3-0.7 0.6-1.4 1-2v-0.1l1.2-1.8c0-0.1 0.1-0.1 0.1-0.2 0.4-0.5 0.8-1 1.3-1.5l0.3-0.3c0.3-0.4 0.7-0.7 1.1-1 0.2-0.1 0.3-0.3 0.5-0.4 0.5-0.4 1.1-0.8 1.6-1.1l32.5-18.7c0.5-0.3 1.1-0.5 1.6-0.7 0.1 0 0.2-0.1 0.3-0.1 0.5-0.2 1-0.3 1.4-0.3h0.1c0.5 0 0.9 0 1.4 0.1h0.1c0.4 0.1 0.9 0.2 1.2 0.5l-11.9-6.8z" fill="#ACC5EA"/>
<path d="M475.7 481.3c4.7-2.7 8.6-0.5 8.6 4.9v16.7c0 5.4-3.8 12.1-8.6 14.8l-32.5 18.7c-4.7 2.7-8.6 0.5-8.6-4.9v-16.7c0-5.4 3.8-12.1 8.5-14.8l32.6-18.7z" fill="#FFFFFF"/>
<path d="M434.6 470.1l-11.7-6.8c0 0.7 0.1 1.3 0.2 1.9 0.3 1.7 1.2 3 2.3 3.6l11.7 6.8c-1.5-1-2.5-2.9-2.5-5.5zM470 412.4c-0.2-0.1-0.3-0.2-0.5-0.2-0.1-0.1-0.3-0.1-0.5-0.2-0.1 0-0.2 0-0.3-0.1h-0.1-0.1c-0.2 0-0.3 0-0.5-0.1h-0.8-0.4c-0.2 0-0.5 0.1-0.8 0.2-0.1 0-0.2 0.1-0.3 0.1-0.1 0-0.2 0.1-0.3 0.1-0.1 0-0.3 0.1-0.4 0.1l-1.2 0.6-32.5 18.7c-0.5 0.3-1.1 0.7-1.6 1.1-0.2 0.1-0.3 0.3-0.5 0.4-0.2 0.2-0.5 0.4-0.7 0.7-0.1 0.1-0.2 0.2-0.3 0.4l-0.3 0.3-0.3 0.3c-0.2 0.3-0.5 0.6-0.7 0.8-0.1 0.1-0.2 0.2-0.2 0.3 0 0.1-0.1 0.1-0.1 0.2-0.1 0.1-0.1 0.2-0.2 0.3-0.2 0.2-0.3 0.5-0.5 0.7-0.2 0.2-0.3 0.5-0.4 0.7v0.2l-0.3 0.6c-0.1 0.2-0.3 0.5-0.4 0.7-0.1 0.2-0.2 0.4-0.3 0.7-0.1 0.3-0.2 0.5-0.3 0.8-0.1 0.3-0.2 0.5-0.3 0.8 0 0.1-0.1 0.3-0.1 0.4 0 0.1 0 0.1-0.1 0.2 0 0.1-0.1 0.2-0.1 0.3-0.1 0.3-0.2 0.7-0.2 1 0 0.2-0.1 0.4-0.1 0.6 0 0.1 0 0.2-0.1 0.3v0.3c-0.1 0.6-0.1 1.1-0.1 1.7v16.7l11.7 6.8v-16.7c0-0.6 0.1-1.3 0.2-2 0-0.1 0-0.2 0.1-0.3 0.1-0.6 0.2-1.2 0.4-1.9 0-0.1 0-0.1 0.1-0.2 0.2-0.7 0.5-1.4 0.7-2 0.3-0.7 0.6-1.3 1-2v-0.1l1.2-1.8c0-0.1 0.1-0.1 0.1-0.2 0.4-0.5 0.8-1 1.3-1.5l0.3-0.3c0.3-0.4 0.7-0.7 1.1-1 0.2-0.1 0.3-0.3 0.5-0.4 0.5-0.4 1.1-0.8 1.6-1.1l32.5-18.7c0.5-0.3 1.1-0.5 1.6-0.7 0.1 0 0.2-0.1 0.3-0.1 0.5-0.2 1-0.3 1.4-0.3h0.1c0.5 0 0.9 0 1.4 0.1h0.1c0.4 0.1 0.9 0.2 1.2 0.5l-12-6.8z" fill="#ACC5EA"/>
<path d="M475.5 419.8c4.7-2.7 8.6-0.5 8.6 4.9v16.7c0 5.4-3.8 12.1-8.6 14.8L443.2 475c-4.7 2.7-8.6 0.5-8.6-4.9v-16.7c0-5.4 3.8-12.1 8.5-14.8l32.4-18.8z" fill="#FFFFFF"/>
<path d="M544.8 430.8c-0.2-0.1-0.3-0.2-0.5-0.2-0.1-0.1-0.3-0.1-0.5-0.2-0.1 0-0.2 0-0.3-0.1h-0.1-0.1c-0.2 0-0.3 0-0.5-0.1h-0.8-0.4c-0.2 0-0.5 0.1-0.8 0.2-0.1 0-0.2 0.1-0.3 0.1-0.1 0-0.2 0.1-0.3 0.1-0.1 0-0.3 0.1-0.4 0.1l-1.2 0.6-32.5 18.7c-0.6 0.3-1.1 0.7-1.6 1.1-0.2 0.1-0.3 0.3-0.5 0.4-0.3 0.2-0.5 0.4-0.7 0.7-0.1 0.1-0.2 0.2-0.3 0.4l-0.3 0.3-0.3 0.3c-0.2 0.3-0.5 0.6-0.7 0.9-0.1 0.1-0.2 0.2-0.2 0.3 0 0.1-0.1 0.1-0.1 0.2-0.1 0.1-0.1 0.2-0.2 0.3-0.2 0.2-0.3 0.5-0.5 0.7-0.2 0.2-0.3 0.5-0.4 0.7v0.2l-0.3 0.6c-0.1 0.2-0.3 0.5-0.4 0.7-0.1 0.2-0.2 0.4-0.3 0.7-0.1 0.3-0.2 0.5-0.3 0.8-0.1 0.3-0.2 0.5-0.3 0.8 0 0.1-0.1 0.3-0.1 0.4 0 0.1 0 0.1-0.1 0.2 0 0.1-0.1 0.2-0.1 0.3-0.1 0.3-0.2 0.7-0.2 1 0 0.2-0.1 0.4-0.1 0.6 0 0.1 0 0.2-0.1 0.3v0.3c-0.1 0.6-0.1 1.1-0.1 1.7v16.7l9.2 5.3-9.2-5.3c0 2 0.5 3.6 1.5 4.6 0.3 0.3 0.7 0.6 1 0.9l11.7 6.8c-1.5-0.9-2.5-2.8-2.5-5.5v-16.7c0-0.6 0.1-1.3 0.2-2 0-0.1 0-0.2 0.1-0.3 0.1-0.6 0.2-1.2 0.4-1.9 0-0.1 0-0.1 0.1-0.2 0.2-0.7 0.5-1.4 0.7-2 0.3-0.7 0.6-1.4 1-2v-0.1l1.2-1.8c0-0.1 0.1-0.1 0.1-0.2 0.4-0.5 0.8-1 1.3-1.5l0.3-0.3c0.3-0.4 0.7-0.7 1.1-1 0.2-0.1 0.3-0.3 0.5-0.4 0.5-0.4 1.1-0.8 1.6-1.1l32.5-18.7c0.5-0.3 1.1-0.5 1.6-0.7 0.1 0 0.2-0.1 0.3-0.1 0.5-0.2 1-0.3 1.4-0.3h0.1c0.5 0 0.9 0 1.4 0.1h0.1c0.4 0.1 0.9 0.2 1.2 0.5l-12-6.9z" fill="#ACC5EA"/>
<path d="M550.4 438.2c4.7-2.7 8.6-0.5 8.6 4.9v16.7c0 5.4-3.8 12.1-8.6 14.8L518 493.4c-4.7 2.7-8.6 0.5-8.6-4.9v-16.7c0-5.4 3.8-12.1 8.6-14.8l32.4-18.8z" fill="#FFFFFF"/>
<path d="M500.1 425.7l11.7 6.8c-1.5-0.9-2.5-2.8-2.5-5.5l-11.7-6.8c0 2.7 1 4.6 2.5 5.5zM544.7 369.3c-0.1 0-0.1 0 0 0-0.2-0.1-0.3-0.2-0.5-0.2-0.1-0.1-0.3-0.1-0.5-0.2-0.1 0-0.2 0-0.3-0.1h-0.1-0.1c-0.2 0-0.3 0-0.5-0.1h-0.8-0.4c-0.2 0-0.5 0.1-0.8 0.2-0.1 0-0.2 0.1-0.3 0.1-0.1 0-0.2 0.1-0.3 0.1-0.1 0-0.3 0.1-0.4 0.1l-1.2 0.6-32.5 18.7c-0.6 0.3-1.1 0.7-1.6 1.1-0.2 0.1-0.3 0.3-0.5 0.4-0.3 0.2-0.5 0.4-0.8 0.7-0.1 0.1-0.2 0.2-0.3 0.4l-0.3 0.3-0.3 0.3c-0.2 0.3-0.5 0.6-0.7 0.8-0.1 0.1-0.2 0.2-0.2 0.3 0 0.1-0.1 0.1-0.1 0.2-0.1 0.1-0.1 0.2-0.2 0.3-0.2 0.2-0.3 0.5-0.5 0.7-0.2 0.2-0.3 0.5-0.4 0.7v0.2l-0.3 0.6c-0.1 0.2-0.3 0.5-0.4 0.7-0.1 0.2-0.2 0.4-0.3 0.7-0.1 0.3-0.2 0.5-0.3 0.8-0.1 0.3-0.2 0.5-0.3 0.8 0 0.1-0.1 0.3-0.1 0.4 0 0.1 0 0.1-0.1 0.2 0 0.1-0.1 0.2-0.1 0.3-0.1 0.3-0.2 0.7-0.2 1 0 0.2-0.1 0.4-0.1 0.6 0 0.1 0 0.2-0.1 0.3 0 0.1 0 0.2-0.1 0.3-0.1 0.6-0.1 1.1-0.1 1.7V420l11.7 6.8v-16.7c0-0.6 0.1-1.3 0.2-2 0-0.1 0-0.2 0.1-0.3 0.1-0.6 0.2-1.2 0.4-1.9 0-0.1 0-0.1 0.1-0.2 0.2-0.7 0.5-1.4 0.7-2 0.3-0.7 0.6-1.4 1-2v-0.1l1.2-1.8c0-0.1 0.1-0.1 0.1-0.2 0.4-0.5 0.8-1 1.3-1.5l0.3-0.3c0.3-0.4 0.7-0.7 1.1-1 0.2-0.1 0.3-0.3 0.5-0.4 0.5-0.4 1.1-0.8 1.6-1.1l32.5-18.7c0.5-0.3 1.1-0.5 1.6-0.7 0.1 0 0.2-0.1 0.3-0.1 0.5-0.2 1-0.3 1.4-0.3h0.1c0.5 0 0.9 0 1.4 0.1h0.1c0.4 0.1 0.9 0.2 1.2 0.5l-11.8-6.8z" fill="#ACC5EA"/>
<path d="M550.2 376.7c4.7-2.7 8.6-0.5 8.6 4.9v16.7c0 5.4-3.8 12.1-8.6 14.8l-32.5 18.7c-4.7 2.7-8.6 0.5-8.6-4.9v-16.7c0-5.4 3.8-12.1 8.6-14.8l32.5-18.7z" fill="#FFFFFF"/>
<path d="M713.8 400.1c-0.2-0.1-0.3-0.2-0.5-0.3l-2.4-1.2-0.6-0.3c-0.5-0.2-0.9-0.4-1.4-0.6-0.3-0.1-0.6-0.2-0.9-0.4-0.3-0.1-0.5-0.2-0.8-0.3-0.9-0.3-1.9-0.7-2.9-1h-0.2c-0.9-0.3-1.9-0.5-2.9-0.7-0.3-0.1-0.6-0.1-0.9-0.2-0.3-0.1-0.6-0.1-0.9-0.2-0.5-0.1-1.1-0.2-1.7-0.2-0.2 0-0.4-0.1-0.7-0.1-0.9-0.1-1.9-0.2-2.9-0.3H688.4c-0.5 0-1.1 0.1-1.6 0.1-0.4 0-0.8 0-1.1 0.1-1.2 0.1-2.3 0.2-3.5 0.4h-0.1c-1.3 0.2-2.6 0.4-3.9 0.7l-1.2 0.3-2.4 0.6c-0.1 0-0.2 0.1-0.2 0.1-1.5 0.4-3.1 0.9-4.6 1.4l-0.9 0.3c-1.3 0.4-2.5 0.9-3.8 1.4-0.2 0.1-0.3 0.1-0.5 0.2-1 0.4-2.1 0.9-3.1 1.4-0.1 0.1-0.3 0.1-0.4 0.2-1.2 0.5-2.3 1.1-3.5 1.7-0.3 0.2-0.7 0.4-1 0.5-1.3 0.7-2.6 1.4-4 2.2-1.4 0.8-2.8 1.6-4.1 2.5-0.4 0.3-0.9 0.6-1.3 0.9-0.9 0.6-1.8 1.2-2.8 1.8-0.5 0.4-1 0.7-1.5 1.1-0.8 0.6-1.7 1.2-2.5 1.8l-1.5 1.2c-0.8 0.6-1.7 1.3-2.5 2-0.5 0.4-1 0.8-1.4 1.2-0.9 0.8-1.9 1.6-2.8 2.4-0.3 0.3-0.7 0.6-1.1 0.9-1.3 1.1-2.5 2.3-3.8 3.4-0.3 0.2-0.5 0.5-0.8 0.8-0.8 0.8-1.7 1.6-2.5 2.4l-0.4 0.4c-1.5 1.5-2.9 3-4.4 4.5-0.1 0.1-0.1 0.2-0.2 0.2-1.4 1.5-2.7 3-4 4.5l-0.4 0.4-1.5 1.8c-0.5 0.6-1.1 1.3-1.6 1.9-0.7 0.8-1.3 1.6-2 2.5-0.5 0.6-1 1.3-1.5 1.9-0.1 0.1-0.2 0.2-0.3 0.4-0.2 0.2-0.3 0.4-0.5 0.6-1.6 2.1-3.2 4.3-4.8 6.5-0.2 0.2-0.3 0.4-0.5 0.7-0.1 0.1-0.1 0.2-0.2 0.3-1.5 2.1-2.9 4.3-4.4 6.5-0.1 0.2-0.3 0.4-0.4 0.6-0.2 0.3-0.4 0.6-0.6 1-1.1 1.8-2.2 3.6-3.3 5.5-0.2 0.3-0.4 0.6-0.5 0.9-0.1 0.1-0.1 0.2-0.2 0.3-1.2 2.1-2.4 4.2-3.6 6.4-0.1 0.2-0.2 0.3-0.3 0.5-0.2 0.4-0.4 0.7-0.5 1.1-0.9 1.7-1.8 3.4-2.6 5.2-0.2 0.4-0.4 0.7-0.5 1.1-0.1 0.2-0.2 0.4-0.3 0.7-1 2.2-2.1 4.4-3 6.6 0 0.1-0.1 0.1-0.1 0.2-0.1 0.2-0.2 0.5-0.3 0.7-0.9 2-1.7 4-2.5 6-0.1 0.3-0.3 0.6-0.4 1-0.1 0.3-0.2 0.5-0.3 0.8-0.9 2.4-1.8 4.8-2.6 7.2v0.1c-0.5 1.6-1 3.2-1.5 4.7-0.1 0.4-0.3 0.9-0.4 1.3-0.3 0.9-0.5 1.8-0.8 2.7-0.1 0.3-0.1 0.6-0.2 0.9-0.2 0.7-0.4 1.5-0.6 2.2-0.3 1-0.5 2-0.7 3-0.2 0.8-0.3 1.5-0.5 2.3-0.1 0.5-0.2 1-0.4 1.6-0.1 0.4-0.1 0.7-0.2 1.1-0.2 1.1-0.4 2.3-0.6 3.4-0.1 0.8-0.3 1.6-0.4 2.3-0.2 1.2-0.4 2.3-0.5 3.5-0.1 0.5-0.2 1.1-0.2 1.6 0 0.2-0.1 0.5-0.1 0.7-0.1 0.5-0.1 1.1-0.2 1.6l-0.3 3.3c-0.1 0.6-0.1 1.1-0.1 1.7-0.1 1.1-0.1 2.2-0.2 3.3 0 0.5-0.1 1-0.1 1.5-0.1 1.6-0.1 3.2-0.1 4.7 0.1 27.1 9.7 46.2 25.1 55.2l14.8 8.6c-15.5-9-25-28.1-25.1-55.2 0-1.6 0-3.1 0.1-4.7 0-0.5 0-1 0.1-1.5 0.1-1.1 0.1-2.2 0.2-3.3 0-0.6 0.1-1.1 0.1-1.7l0.3-3.3c0.1-0.5 0.1-1.1 0.2-1.6 0.1-0.8 0.2-1.6 0.3-2.3 0.2-1.2 0.3-2.3 0.5-3.5 0.1-0.8 0.3-1.6 0.4-2.3 0.2-1.1 0.4-2.2 0.6-3.4l0.6-2.7c0.2-0.8 0.3-1.5 0.5-2.3 0.2-1 0.5-2 0.7-3 0.2-0.7 0.4-1.5 0.6-2.2 0.3-1.2 0.7-2.4 1-3.6 0.1-0.4 0.3-0.9 0.4-1.3 0.5-1.6 1-3.3 1.6-4.9 0.8-2.4 1.7-4.8 2.6-7.2 0.2-0.6 0.5-1.2 0.7-1.8 0.8-2 1.6-4 2.5-6 0.1-0.3 0.2-0.6 0.4-0.9l3-6.6c0.3-0.6 0.6-1.1 0.8-1.7 0.8-1.7 1.7-3.5 2.6-5.2 0.3-0.5 0.5-1.1 0.8-1.6 1.2-2.2 2.3-4.3 3.6-6.4 0.2-0.4 0.5-0.8 0.7-1.2 1.1-1.8 2.2-3.7 3.3-5.5 0.3-0.5 0.7-1.1 1-1.6 1.4-2.2 2.9-4.4 4.4-6.5 0.2-0.3 0.5-0.6 0.7-1 1.6-2.2 3.2-4.4 4.8-6.5 0.2-0.3 0.5-0.7 0.7-1 0.5-0.7 1-1.3 1.6-2 0.7-0.8 1.3-1.6 2-2.4 0.5-0.7 1.1-1.3 1.6-1.9 0.6-0.8 1.3-1.5 1.9-2.2 1.3-1.5 2.7-3 4.1-4.5 0.1-0.1 0.1-0.2 0.2-0.2 1.4-1.5 2.9-3 4.4-4.5 0.9-0.9 1.9-1.8 2.8-2.8 0.3-0.2 0.5-0.5 0.8-0.8 1.3-1.2 2.5-2.3 3.8-3.4 0.3-0.3 0.7-0.6 1-0.9 0.9-0.8 1.9-1.6 2.8-2.4 0.5-0.4 1-0.8 1.4-1.2 0.8-0.7 1.7-1.3 2.5-2l1.5-1.2c0.8-0.6 1.7-1.2 2.5-1.8 0.5-0.4 1-0.7 1.5-1.1 0.9-0.6 1.8-1.2 2.8-1.8 0.4-0.3 0.9-0.6 1.3-0.9 1.4-0.9 2.7-1.7 4.1-2.5 1.3-0.8 2.7-1.5 4-2.2 0.3-0.2 0.7-0.4 1-0.5 1.2-0.6 2.3-1.2 3.5-1.7 0.1-0.1 0.3-0.1 0.4-0.2 1.2-0.6 2.4-1.1 3.6-1.6 1.3-0.5 2.5-1 3.8-1.5l0.9-0.3c1.6-0.5 3.1-1 4.6-1.4 0.9-0.2 1.8-0.5 2.7-0.7 0.4-0.1 0.8-0.2 1.3-0.3 1.3-0.3 2.6-0.5 3.9-0.7h0.1c1.2-0.2 2.3-0.3 3.5-0.4 0.4 0 0.8-0.1 1.1-0.1 0.8-0.1 1.7-0.1 2.5-0.1h4.5c1.1 0.1 2.2 0.2 3.2 0.3 0.2 0 0.4 0.1 0.7 0.1 0.9 0.1 1.7 0.3 2.6 0.4 0.3 0.1 0.6 0.1 0.9 0.2 1 0.2 1.9 0.4 2.9 0.7h0.2c1 0.3 2 0.6 2.9 1 0.3 0.1 0.5 0.2 0.8 0.3 0.8 0.3 1.5 0.6 2.3 1l0.6 0.3c1 0.5 1.9 1 2.8 1.5l-14.9-8.5z" fill="#C68620"/>
<path d="M667.4 414.7c47.5-27.4 86.2-5.4 86.4 49.2 0.2 54.6-38.3 121.2-85.8 148.6s-86.2 5.4-86.3-49.2 38.1-121.1 85.7-148.6z" fill="#FFCD2E"/>
<path d="M700.3 459.4l1.9 4c-20.1 33.6-36.6 74.1-41.7 92.9l-30.4-19 7.7-11.8 17.6 6.1c7-14.2 22.9-43.5 44.9-72.2z" fill="#C68620"/>
<path d="M669.6 537.4c0.1-0.2 0.2-0.3 0.3-0.5 0.5-1 1-1.9 1.6-3 0.3-0.6 0.7-1.3 1-1.9 0.3-0.6 0.7-1.2 1-1.9 0.4-0.7 0.8-1.4 1.1-2.1 0.4-0.7 0.7-1.3 1.1-2 0.4-0.7 0.8-1.4 1.2-2.2l1.2-2.1c0.4-0.7 0.9-1.5 1.3-2.3 0.4-0.7 0.8-1.5 1.3-2.2 0.3-0.5 0.5-0.9 0.8-1.4l1.8-3c0.3-0.6 0.7-1.1 1-1.7 0.6-0.9 1.1-1.9 1.7-2.8 0.4-0.6 0.8-1.2 1.2-1.9 0.6-0.9 1.2-1.9 1.8-2.8 0.4-0.6 0.8-1.3 1.2-1.9 0.4-0.7 0.8-1.3 1.3-2 1.4-2.2 2.8-4.4 4.3-6.6 0.2-0.2 0.3-0.4 0.4-0.7 1.6-2.4 3.2-4.8 4.9-7.2 0.5-0.6 0.9-1.3 1.4-1.9 1-1.4 2-2.9 3.1-4.3 0.5-0.7 0.9-1.3 1.4-2 1.5-2.1 3-4.1 4.6-6.2l-10.8-6.3c-1.6 2.1-3.1 4.1-4.6 6.2-0.5 0.7-0.9 1.3-1.4 1.9-1.1 1.4-2.1 2.9-3.1 4.3-0.3 0.4-0.5 0.7-0.8 1.1l-0.6 0.9c-1.7 2.4-3.3 4.8-4.9 7.2-0.2 0.2-0.3 0.4-0.4 0.7-1.5 2.2-2.9 4.4-4.3 6.6l-0.6 0.9c-0.2 0.4-0.5 0.7-0.7 1.1-0.4 0.7-0.8 1.3-1.2 1.9-0.6 1-1.2 1.9-1.8 2.8-0.4 0.6-0.8 1.3-1.2 1.9-0.6 1-1.2 1.9-1.7 2.8-0.3 0.6-0.7 1.1-1 1.7l-1.8 3c-0.3 0.5-0.6 0.9-0.8 1.4-0.1 0.1-0.1 0.2-0.2 0.3-0.4 0.6-0.7 1.3-1.1 1.9-0.5 0.8-0.9 1.6-1.3 2.3l-1.2 2.1c-0.4 0.7-0.8 1.5-1.2 2.2-0.4 0.7-0.7 1.3-1.1 2-0.4 0.7-0.8 1.4-1.1 2.1-0.3 0.6-0.7 1.2-1 1.8-0.4 0.7-0.7 1.3-1 1.9-0.1 0.1-0.1 0.2-0.2 0.3-0.5 0.9-0.9 1.8-1.4 2.6-0.1 0.2-0.2 0.4-0.3 0.5l-1.2 2.4c-0.1 0.2-0.2 0.5-0.4 0.7-0.4 0.9-0.9 1.7-1.3 2.5l-17.6-6.1-7.7 11.8 10.8 6.3 7.7-11.8 17.6 6.1c0.4-0.8 0.8-1.6 1.3-2.5 0.1-0.2 0.2-0.5 0.4-0.7 0.4-0.5 0.8-1.3 1.2-2.2z" fill="#E8CFAC"/>
<path d="M671.9 567.8l-10.8-6.3-30.4-19 10.8 6.3z" fill="#808080"/>
<path d="M711.7 470.9l1.9 4c-20.1 33.6-36.6 74.1-41.7 92.9l-30.4-19 7.7-11.8 17.6 6.1c7.1-14.3 23-43.6 44.9-72.2z" fill="#FFFFFF"/>
</g>
</svg>